# Blender 5.0.1
# www.blender.org
mtllib CoffeeJam2Cup.mtl
o Cylinder.003
v 0.000000 -0.173876 -0.111518
v 0.000000 0.173876 -0.138995
v 0.060291 -0.173876 -0.093815
v 0.075146 0.173876 -0.116930
v 0.101441 -0.173876 -0.046326
v 0.126434 0.173876 -0.057741
v 0.110383 -0.173876 0.015871
v 0.137580 0.173876 0.019781
v 0.084280 -0.173876 0.073029
v 0.105045 0.173876 0.091022
v 0.031418 -0.173876 0.107001
v 0.039159 0.173876 0.133365
v -0.031418 -0.173876 0.107001
v -0.039159 0.173876 0.133365
v -0.084280 -0.173876 0.073029
v -0.105045 0.173876 0.091022
v -0.110383 -0.173876 0.015871
v -0.137580 0.173876 0.019781
v -0.101441 -0.173876 -0.046326
v -0.126434 0.173876 -0.057741
v -0.060291 -0.173876 -0.093815
v -0.075146 0.173876 -0.116930
v 0.000000 -0.070405 -0.125951
v 0.000000 0.059164 -0.134536
v 0.068095 -0.070405 -0.105957
v 0.072736 0.059164 -0.113179
v 0.114570 -0.070405 -0.052322
v 0.122378 0.059164 -0.055888
v 0.124670 -0.070405 0.017925
v 0.133167 0.059164 0.019146
v 0.095188 -0.070405 0.082481
v 0.101675 0.059164 0.088102
v 0.035485 -0.070404 0.120850
v 0.037903 0.059164 0.129086
v -0.035485 -0.070404 0.120850
v -0.037903 0.059164 0.129086
v -0.095188 -0.070405 0.082481
v -0.101675 0.059164 0.088102
v -0.124669 -0.070405 0.017925
v -0.133166 0.059164 0.019146
v -0.114569 -0.070405 -0.052322
v -0.122378 0.059164 -0.055888
v -0.068094 -0.070405 -0.105957
v -0.072735 0.059164 -0.113179
v 0.000000 0.172241 -0.145270
v 0.000000 0.195291 -0.191659
v 0.078539 0.172241 -0.122209
v 0.103619 0.195291 -0.161234
v 0.132143 0.172241 -0.060347
v 0.174339 0.195291 -0.079618
v 0.143792 0.172241 0.020674
v 0.189709 0.195291 0.027276
v 0.109788 0.172241 0.095132
v 0.144846 0.195292 0.125510
v 0.040927 0.172241 0.139386
v 0.053997 0.195292 0.183896
v -0.040927 0.172241 0.139386
v -0.053997 0.195292 0.183896
v -0.109788 0.172241 0.095132
v -0.144846 0.195292 0.125510
v -0.143792 0.172241 0.020674
v -0.189708 0.195291 0.027276
v -0.132142 0.172241 -0.060347
v -0.174339 0.195291 -0.079618
v -0.078539 0.172241 -0.122209
v -0.103619 0.195291 -0.161234
v 0.000000 0.195283 -0.150763
v 0.081509 0.195283 -0.126830
v 0.137139 0.195283 -0.062629
v 0.149229 0.195283 0.021456
v 0.113939 0.195283 0.098729
v 0.042475 0.195283 0.144656
v -0.042475 0.195283 0.144656
v -0.113939 0.195283 0.098729
v -0.149228 0.195283 0.021456
v -0.137139 0.195283 -0.062629
v -0.081509 0.195283 -0.126830
v 0.000000 0.233282 -0.191659
v 0.103619 0.233329 -0.161234
v 0.174339 0.233282 -0.079618
v 0.189709 0.233282 0.027276
v 0.144846 0.233282 0.125510
v 0.053997 0.233282 0.183896
v -0.053997 0.233282 0.183896
v -0.144846 0.233282 0.125510
v -0.189708 0.233282 0.027276
v -0.174339 0.233282 -0.079618
v -0.103619 0.233282 -0.161234
v 0.000000 0.233281 -0.147586
v 0.079791 0.233281 -0.124157
v 0.134249 0.233281 -0.061309
v 0.146084 0.233281 0.021004
v 0.111538 0.233281 0.096648
v 0.041580 0.233281 0.141608
v -0.041580 0.233281 0.141608
v -0.111538 0.233281 0.096648
v -0.146084 0.233281 0.021004
v -0.134249 0.233281 -0.061309
v -0.079791 0.233281 -0.124157
v 0.000000 0.281755 -0.147586
v 0.079791 0.281755 -0.124157
v 0.134249 0.281755 -0.061309
v 0.146084 0.281755 0.021004
v 0.111538 0.281755 0.096648
v 0.041580 0.281755 0.141608
v -0.041580 0.281755 0.141608
v -0.111538 0.281755 0.096648
v -0.146084 0.281755 0.021004
v -0.134249 0.281755 -0.061309
v -0.079791 0.281755 -0.124157
v 0.000000 -0.185873 -0.121058
v 0.000000 0.185577 -0.150454
v 0.065449 -0.185873 -0.101841
v 0.081341 0.185577 -0.126570
v 0.110119 -0.185873 -0.050289
v 0.136857 0.185577 -0.062501
v 0.119826 -0.185873 0.017228
v 0.148922 0.185577 0.021412
v 0.091490 -0.185873 0.079276
v 0.113705 0.185577 0.098526
v 0.034106 -0.185873 0.116155
v 0.042388 0.185577 0.144359
v -0.034106 -0.185873 0.116155
v -0.042388 0.185577 0.144359
v -0.091490 -0.185873 0.079276
v -0.113705 0.185577 0.098526
v -0.119826 -0.185873 0.017228
v -0.148922 0.185577 0.021412
v -0.110119 -0.185873 -0.050289
v -0.136857 0.185577 -0.062501
v -0.065449 -0.185873 -0.101841
v -0.081341 0.185577 -0.126570
v 0.000000 -0.071123 -0.137015
v 0.000000 0.059633 -0.147312
v 0.074076 -0.071123 -0.115265
v 0.079643 0.059633 -0.123927
v 0.124634 -0.071123 -0.056918
v 0.134000 0.059633 -0.061196
v 0.135621 -0.071122 0.019499
v 0.145813 0.059633 0.020965
v 0.103549 -0.071122 0.089726
v 0.111331 0.059633 0.096469
v 0.038602 -0.071122 0.131465
v 0.041503 0.059633 0.141345
v -0.038602 -0.071122 0.131465
v -0.041503 0.059633 0.141345
v -0.103549 -0.071122 0.089726
v -0.111331 0.059633 0.096469
v -0.135621 -0.071122 0.019499
v -0.145813 0.059633 0.020965
v -0.124633 -0.071123 -0.056918
v -0.134000 0.059633 -0.061196
v -0.074076 -0.071123 -0.115265
v -0.079643 0.059633 -0.123927
v 0.000000 0.169920 -0.155010
v 0.000000 0.182878 -0.202615
v 0.083805 0.169920 -0.130402
v 0.109542 0.182878 -0.170451
v 0.141002 0.169920 -0.064393
v 0.184305 0.182878 -0.084169
v 0.153432 0.169920 0.022060
v 0.200553 0.182878 0.028835
v 0.117149 0.169920 0.101510
v 0.153126 0.182878 0.132685
v 0.043671 0.169920 0.148731
v 0.057083 0.182878 0.194408
v -0.043671 0.169920 0.148731
v -0.057083 0.182878 0.194408
v -0.117148 0.169920 0.101510
v -0.153126 0.182878 0.132685
v -0.153432 0.169920 0.022060
v -0.200553 0.182878 0.028835
v -0.141002 0.169920 -0.064393
v -0.184305 0.182878 -0.084169
v -0.083805 0.169920 -0.130402
v -0.109542 0.182878 -0.170451
v 0.000000 0.180777 -0.157270
v 0.085026 0.180777 -0.132304
v 0.143057 0.180777 -0.065332
v 0.155669 0.180777 0.022382
v 0.118856 0.180777 0.102990
v 0.044308 0.180777 0.150899
v -0.044308 0.180777 0.150899
v -0.118856 0.180777 0.102990
v -0.155669 0.180777 0.022382
v -0.143057 0.180777 -0.065332
v -0.085026 0.180777 -0.132304
v -0.000001 0.245700 -0.202616
v 0.109542 0.245752 -0.170451
v 0.184307 0.245700 -0.084169
v 0.200553 0.245698 0.028835
v 0.153127 0.245698 0.132685
v 0.057083 0.245698 0.194408
v -0.057083 0.245698 0.194408
v -0.153126 0.245698 0.132685
v -0.200553 0.245698 0.028835
v -0.184305 0.245698 -0.084169
v -0.109542 0.245698 -0.170451
v -0.000002 0.248409 -0.156825
v 0.084786 0.248413 -0.131929
v 0.142654 0.248409 -0.065146
v 0.155229 0.248406 0.022319
v 0.118521 0.248406 0.102699
v 0.044183 0.248406 0.150473
v -0.044183 0.248406 0.150473
v -0.118521 0.248406 0.102699
v -0.155229 0.248406 0.022319
v -0.142653 0.248406 -0.065148
v -0.084786 0.248406 -0.131930
v 0.000000 0.293606 -0.158043
v 0.085445 0.293606 -0.132955
v 0.143761 0.293606 -0.065654
v 0.156435 0.293606 0.022492
v 0.119441 0.293606 0.103497
v 0.044526 0.293606 0.151642
v -0.044526 0.293606 0.151642
v -0.119441 0.293606 0.103497
v -0.156435 0.293606 0.022492
v -0.143761 0.293606 -0.065654
v -0.085445 0.293606 -0.132955
vn -0.0000 -0.0788 -0.9969
vn 0.5390 -0.0788 -0.8386
vn 0.9068 -0.0788 -0.4141
vn 0.9867 -0.0788 0.1419
vn 0.7534 -0.0788 0.6528
vn 0.2809 -0.0788 0.9565
vn -0.2809 -0.0788 0.9565
vn -0.7534 -0.0788 0.6528
vn -0.9867 -0.0788 0.1419
vn -0.9068 -0.0788 -0.4141
vn -0.0000 1.0000 -0.0000
vn -0.5390 -0.0788 -0.8386
vn -0.0000 -1.0000 -0.0000
vn -0.0000 -0.0661 -0.9978
vn 0.5395 -0.0661 -0.8394
vn 0.9076 -0.0661 -0.4145
vn 0.9877 -0.0661 0.1420
vn 0.7541 -0.0661 0.6534
vn 0.2811 -0.0661 0.9574
vn -0.2811 -0.0661 0.9574
vn -0.7541 -0.0661 0.6534
vn -0.9877 -0.0661 0.1420
vn -0.9076 -0.0661 -0.4145
vn -0.5395 -0.0661 -0.8394
vn -0.0000 -1.0000 -0.0002
vn 0.0001 -1.0000 -0.0002
vn 0.0002 -1.0000 -0.0001
vn 0.0002 -1.0000 -0.0000
vn 0.0002 -1.0000 0.0001
vn 0.0001 -1.0000 0.0002
vn -0.0001 -1.0000 0.0002
vn -0.0002 -1.0000 0.0001
vn -0.0002 -1.0000 -0.0000
vn -0.0002 -1.0000 -0.0001
vn -0.0001 -1.0000 -0.0002
vn -0.5259 -0.2319 -0.8183
vn -0.0000 -0.2319 -0.9727
vn -0.8848 -0.2319 -0.4041
vn -0.9628 -0.2319 0.1384
vn -0.7352 -0.2319 0.6370
vn -0.2741 -0.2319 0.9333
vn 0.2741 -0.2319 0.9333
vn 0.7352 -0.2319 0.6370
vn 0.9628 -0.2319 0.1384
vn 0.8848 -0.2319 -0.4041
vn 0.5259 -0.2319 -0.8183
vn 0.9898 -0.0000 0.1423
vn 0.7557 -0.0000 0.6549
vn -0.9898 -0.0000 0.1423
vn -0.9096 -0.0000 -0.4154
vn -0.2817 -0.0000 0.9595
vn -0.7557 -0.0000 0.6549
vn 0.2817 -0.0000 0.9595
vn -0.0002 1.0000 0.0003
vn -0.5406 -0.0000 -0.8413
vn 0.9096 -0.0000 -0.4154
vn 0.9096 -0.0000 -0.4155
vn 0.5406 -0.0000 -0.8413
vn -0.0000 -0.0000 -1.0000
vn -0.0003 1.0000 0.0005
vn -0.0000 0.0789 0.9969
vn -0.5390 0.0789 0.8386
vn -0.9068 0.0789 0.4141
vn -0.9867 0.0789 -0.1419
vn -0.7534 0.0789 -0.6528
vn -0.2809 0.0789 -0.9565
vn 0.2809 0.0789 -0.9565
vn 0.7534 0.0789 -0.6528
vn 0.9867 0.0789 -0.1419
vn 0.9068 0.0789 0.4141
vn 0.5390 0.0789 0.8386
vn -0.0000 0.0785 0.9969
vn -0.5390 0.0785 0.8387
vn -0.9068 0.0785 0.4141
vn -0.9868 0.0785 -0.1419
vn -0.7534 0.0785 -0.6528
vn -0.2809 0.0785 -0.9565
vn 0.2809 0.0785 -0.9565
vn 0.7534 0.0785 -0.6528
vn 0.9868 0.0785 -0.1419
vn 0.9068 0.0785 0.4141
vn 0.5390 0.0785 0.8387
vn -0.0136 0.9988 0.0463
vn -0.0365 0.9988 0.0316
vn -0.0477 0.9988 0.0069
vn -0.0439 0.9988 -0.0200
vn -0.0261 0.9988 -0.0406
vn -0.0000 0.9988 -0.0482
vn 0.0261 0.9988 -0.0406
vn 0.0439 0.9988 -0.0200
vn 0.0477 0.9988 0.0069
vn 0.0365 0.9988 0.0316
vn 0.0136 0.9988 0.0463
vn 0.5293 0.2038 0.8236
vn -0.0000 0.2038 0.9790
vn 0.8905 0.2038 0.4067
vn 0.9691 0.2038 -0.1393
vn 0.7399 0.2038 -0.6411
vn 0.2758 0.2038 -0.9394
vn -0.2758 0.2038 -0.9394
vn -0.7399 0.2038 -0.6411
vn -0.9691 0.2038 -0.1393
vn -0.8905 0.2038 0.4067
vn -0.5293 0.2038 0.8236
vn -0.9898 -0.0000 -0.1423
vn -0.7557 -0.0000 -0.6549
vn 0.9898 -0.0000 -0.1423
vn 0.9096 -0.0000 0.4154
vn 0.2817 -0.0000 -0.9595
vn 0.7557 -0.0000 -0.6549
vn -0.2817 -0.0000 -0.9595
vn -0.0609 -0.9981 0.0087
vn 0.5406 -0.0000 0.8413
vn -0.9096 -0.0000 0.4154
vn -0.9096 -0.0000 0.4155
vn 0.9895 0.0269 -0.1423
vn 0.7555 0.0269 -0.6546
vn 0.0465 -0.9981 0.0403
vn 0.0333 -0.9981 -0.0518
vn -0.0560 -0.9981 -0.0256
vn 0.0174 -0.9981 0.0590
vn 0.0560 -0.9981 -0.0256
vn -0.0333 -0.9981 -0.0518
vn 0.0609 -0.9981 0.0088
vn -0.0000 -0.9981 -0.0615
vn -0.2816 0.0269 -0.9591
vn -0.7555 0.0269 -0.6546
vn -0.9093 0.0269 0.4153
vn -0.5404 0.0270 0.8409
vn 0.9093 0.0269 0.4153
vn 0.2816 0.0269 -0.9591
vn -0.9895 0.0269 -0.1423
vn 0.5404 0.0269 0.8409
vn -0.0000 0.0269 0.9996
vn -0.0463 -0.9981 0.0397
vn -0.0169 -0.9981 0.0586
vn -0.5406 -0.0000 0.8413
vn -0.0000 -0.0000 1.0000
vt 0.273272 0.863437
vt 0.273272 0.999980
vt 0.248446 0.999980
vt 0.248446 0.863437
vt 0.223620 0.999980
vt 0.223620 0.863437
vt 0.198794 0.999980
vt 0.198794 0.863437
vt 0.173968 0.999980
vt 0.173968 0.863437
vt 0.149142 0.999980
vt 0.149142 0.863437
vt 0.124316 0.999980
vt 0.124316 0.863437
vt 0.099490 0.999980
vt 0.099490 0.863437
vt 0.074664 0.999980
vt 0.074664 0.863437
vt 0.049838 0.999980
vt 0.049838 0.863437
vt 0.991012 0.994779
vt 0.980501 0.997865
vt 0.969990 0.994779
vt 0.962817 0.986500
vt 0.961258 0.975657
vt 0.965808 0.965693
vt 0.975024 0.959770
vt 0.985978 0.959770
vt 0.995194 0.965693
vt 0.999745 0.975657
vt 0.998185 0.986500
vt 0.025012 0.999980
vt 0.025012 0.863437
vt 0.000186 0.999980
vt 0.000186 0.863437
vt 0.063292 0.922588
vt 0.067253 0.921425
vt 0.069956 0.918305
vt 0.070543 0.914220
vt 0.068828 0.910465
vt 0.065356 0.908234
vt 0.061228 0.908234
vt 0.057756 0.910465
vt 0.056042 0.914220
vt 0.056629 0.918305
vt 0.059332 0.921425
vt 0.273272 0.782937
vt 0.273272 0.832650
vt 0.248446 0.832650
vt 0.248446 0.782937
vt 0.223620 0.832650
vt 0.223620 0.782937
vt 0.198794 0.832650
vt 0.198794 0.782937
vt 0.173968 0.832650
vt 0.173968 0.782937
vt 0.149142 0.832650
vt 0.149142 0.782937
vt 0.124316 0.832650
vt 0.124316 0.782937
vt 0.099490 0.832650
vt 0.099490 0.782937
vt 0.074664 0.832650
vt 0.074664 0.782937
vt 0.049838 0.832650
vt 0.049838 0.782937
vt 0.041365 0.758434
vt 0.037184 0.759661
vt 0.033003 0.758434
vt 0.030149 0.755140
vt 0.029529 0.750827
vt 0.031339 0.746863
vt 0.035005 0.744507
vt 0.039363 0.744507
vt 0.043029 0.746863
vt 0.044839 0.750827
vt 0.044219 0.755140
vt 0.025012 0.832650
vt 0.025012 0.782937
vt 0.000186 0.832650
vt 0.000186 0.782937
vt 0.053296 0.759661
vt 0.057478 0.758434
vt 0.060331 0.755140
vt 0.060952 0.750827
vt 0.059141 0.746863
vt 0.055475 0.744507
vt 0.051117 0.744507
vt 0.047451 0.746863
vt 0.045641 0.750827
vt 0.046261 0.755140
vt 0.049115 0.758434
vt 0.349206 0.517289
vt 0.328525 0.541157
vt 0.283437 0.470999
vt 0.313739 0.462101
vt 0.283437 0.387603
vt 0.313739 0.396500
vt 0.328525 0.317445
vt 0.349206 0.341313
vt 0.404385 0.282801
vt 0.408879 0.314061
vt 0.486933 0.294669
vt 0.473813 0.323397
vt 0.549959 0.349282
vt 0.523391 0.366357
vt 0.573455 0.429301
vt 0.541873 0.429301
vt 0.549960 0.509319
vt 0.523391 0.492245
vt 0.486933 0.563932
vt 0.473813 0.535205
vt 0.404385 0.575801
vt 0.408879 0.544541
vt 0.541216 0.764137
vt 0.523407 0.703486
vt 0.541216 0.642835
vt 0.588988 0.601440
vt 0.651556 0.592445
vt 0.709055 0.618704
vt 0.743229 0.671880
vt 0.743229 0.735092
vt 0.709055 0.788269
vt 0.651556 0.814527
vt 0.588988 0.805532
vt 0.989281 0.648983
vt 0.975736 0.647605
vt 0.978110 0.592445
vt 0.991569 0.595832
vt 0.988428 0.712189
vt 0.974851 0.713200
vt 0.989281 0.765382
vt 0.975736 0.768405
vt 0.991569 0.791674
vt 0.978110 0.795691
vt 0.943777 0.765382
vt 0.957322 0.768405
vt 0.954948 0.795691
vt 0.941489 0.791674
vt 0.944630 0.712189
vt 0.958207 0.713200
vt 0.943777 0.648983
vt 0.957322 0.647605
vt 0.941489 0.595832
vt 0.954948 0.592445
vt 0.859112 0.864814
vt 0.845549 0.863619
vt 0.847179 0.808431
vt 0.860682 0.811637
vt 0.859112 0.928025
vt 0.845549 0.929220
vt 0.860682 0.981202
vt 0.847179 0.984407
vt 0.759873 0.592742
vt 0.781924 0.592445
vt 0.784942 0.662568
vt 0.762891 0.662866
vt 0.825887 0.816434
vt 0.803836 0.816136
vt 0.802711 0.745957
vt 0.824762 0.746254
vt 0.762891 0.816434
vt 0.784942 0.816136
vt 0.781924 0.850824
vt 0.759873 0.851122
vt 0.786068 0.745957
vt 0.764017 0.746254
vt 0.835029 0.317445
vt 0.880117 0.387603
vt 0.847460 0.397191
vt 0.812741 0.343167
vt 0.803836 0.662568
vt 0.825887 0.662866
vt 0.898832 0.436355
vt 0.920885 0.436355
vt 0.918813 0.506512
vt 0.896760 0.506512
vt 0.828906 0.851122
vt 0.806855 0.850824
vt 0.922564 0.765076
vt 0.922607 0.791788
vt 0.896710 0.791408
vt 0.894386 0.764697
vt 0.759169 0.575801
vt 0.676621 0.563932
vt 0.690760 0.532973
vt 0.754325 0.542112
vt 0.590099 0.429301
vt 0.613594 0.349282
vt 0.642227 0.367683
vt 0.624134 0.429301
vt 0.759169 0.282801
vt 0.754325 0.316489
vt 0.835029 0.541157
vt 0.812741 0.515435
vt 0.613594 0.509319
vt 0.642226 0.490918
vt 0.676621 0.294669
vt 0.690760 0.325629
vt 0.350063 0.808928
vt 0.301530 0.766873
vt 0.283437 0.705256
vt 0.301530 0.643638
vt 0.350063 0.601584
vt 0.413628 0.592445
vt 0.472044 0.619122
vt 0.506763 0.673146
vt 0.506763 0.737365
vt 0.472044 0.791390
vt 0.413628 0.818067
vt 0.848740 0.711035
vt 0.847874 0.646822
vt 0.876009 0.646443
vt 0.876875 0.710656
vt 0.965964 0.336825
vt 0.965964 0.401044
vt 0.937556 0.401044
vt 0.937556 0.336825
vt 0.922548 0.711035
vt 0.893519 0.710656
vt 0.847873 0.765076
vt 0.876009 0.764697
vt 0.965952 0.282801
vt 0.939152 0.282801
vt 0.922564 0.646822
vt 0.894386 0.646443
vt 0.845549 0.791788
vt 0.873685 0.791408
vt 0.845549 0.592824
vt 0.873685 0.592445
vt 0.922607 0.592824
vt 0.896710 0.592445
vt 0.965952 0.455068
vt 0.939152 0.455068
vt 0.880117 0.470999
vt 0.847460 0.461410
vt 0.898832 0.352958
vt 0.896760 0.282801
vt 0.918813 0.282801
vt 0.920913 0.352958
vt 0.806855 0.592445
vt 0.828906 0.592742
s 1
usemtl Material.007
f 1/1/1 2/2/1 4/3/2 3/4/2
f 3/4/2 4/3/2 6/5/3 5/6/3
f 5/6/3 6/5/3 8/7/4 7/8/4
f 7/8/4 8/7/4 10/9/5 9/10/5
f 9/10/5 10/9/5 12/11/6 11/12/6
f 11/12/6 12/11/6 14/13/7 13/14/7
f 13/14/7 14/13/7 16/15/8 15/16/8
f 15/16/8 16/15/8 18/17/9 17/18/9
f 17/18/9 18/17/9 20/19/10 19/20/10
f 4/21/11 2/22/11 22/23/11 20/24/11 18/25/11 16/26/11 14/27/11 12/28/11 10/29/11 8/30/11 6/31/11
f 19/20/10 20/19/10 22/32/12 21/33/12
f 21/33/12 22/32/12 2/34/1 1/35/1
f 1/36/13 3/37/13 5/38/13 7/39/13 9/40/13 11/41/13 13/42/13 15/43/13 17/44/13 19/45/13 21/46/13
f 23/47/14 24/48/14 26/49/15 25/50/15
f 25/50/15 26/49/15 28/51/16 27/52/16
f 27/52/16 28/51/16 30/53/17 29/54/17
f 29/54/17 30/53/17 32/55/18 31/56/18
f 31/56/18 32/55/18 34/57/19 33/58/19
f 33/58/19 34/57/19 36/59/20 35/60/20
f 35/60/20 36/59/20 38/61/21 37/62/21
f 37/62/21 38/61/21 40/63/22 39/64/22
f 39/64/22 40/63/22 42/65/23 41/66/23
f 26/67/11 24/68/11 44/69/11 42/70/11 40/71/11 38/72/11 36/73/11 34/74/11 32/75/11 30/76/11 28/77/11
f 41/66/23 42/65/23 44/78/24 43/79/24
f 43/79/24 44/78/24 24/80/14 23/81/14
f 23/82/13 25/83/13 27/84/13 29/85/13 31/86/13 33/87/13 35/88/13 37/89/13 39/90/13 41/91/13 43/92/13
f 67/93/25 46/94/25 48/95/26 68/96/26
f 68/96/26 48/95/26 50/97/27 69/98/27
f 69/98/27 50/97/27 52/99/28 70/100/28
f 70/100/28 52/99/28 54/101/29 71/102/29
f 71/102/29 54/101/29 56/103/30 72/104/30
f 72/104/30 56/103/30 58/105/31 73/106/31
f 73/106/31 58/105/31 60/107/32 74/108/32
f 74/108/32 60/107/32 62/109/33 75/110/33
f 75/110/33 62/109/33 64/111/34 76/112/34
f 76/112/34 64/111/34 66/113/35 77/114/35
f 77/114/35 66/113/35 46/94/25 67/93/25
f 45/115/13 47/116/13 49/117/13 51/118/13 53/119/13 55/120/13 57/121/13 59/122/13 61/123/13 63/124/13 65/125/13
f 65/126/36 77/127/36 67/128/37 45/129/37
f 63/130/38 76/131/38 77/127/36 65/126/36
f 61/132/39 75/133/39 76/131/38 63/130/38
f 59/134/40 74/135/40 75/133/39 61/132/39
f 57/136/41 73/137/41 74/138/40 59/139/40
f 55/140/42 72/141/42 73/137/41 57/136/41
f 53/142/43 71/143/43 72/141/42 55/140/42
f 51/144/44 70/145/44 71/143/43 53/142/43
f 49/146/45 69/147/45 70/148/44 51/149/44
f 47/150/46 68/151/46 69/147/45 49/146/45
f 45/152/37 67/153/37 68/151/46 47/150/46
f 52/154/47 81/155/47 82/156/48 54/157/48
f 62/158/49 86/159/49 87/160/50 64/161/50
f 58/162/51 84/163/51 85/164/52 60/165/52
f 54/157/48 82/156/48 83/166/53 56/167/53
f 81/168/11 80/169/54 91/170/54 92/171/11
f 64/161/50 87/160/50 88/172/55 66/173/55
f 56/167/53 83/166/53 84/163/51 58/162/51
f 50/174/56 80/175/57 81/176/47 52/177/47
f 60/178/52 85/179/52 86/159/49 62/158/49
f 97/180/49 96/181/52 107/182/52 108/183/49
f 88/184/11 87/185/11 98/186/11 99/187/11
f 85/188/11 84/189/11 95/190/11 96/191/11
f 82/192/11 81/168/11 92/171/11 93/193/11
f 78/194/54 88/184/11 99/187/11 89/195/54
f 86/196/11 85/188/11 96/191/11 97/197/11
f 83/198/11 82/192/11 93/193/11 94/199/11
f 87/185/11 86/196/11 97/197/11 98/186/11
f 84/189/11 83/198/11 94/199/11 95/190/11
f 101/200/11 100/201/11 110/202/11 109/203/11 108/204/11 107/205/11 106/206/11 105/207/11 104/208/11 103/209/11 102/210/11
f 94/211/53 93/212/48 104/213/48 105/214/53
f 91/215/56 90/216/58 101/217/58 102/218/56
f 98/219/50 97/180/49 108/183/49 109/220/50
f 95/221/51 94/211/53 105/214/53 106/222/51
f 92/223/47 91/215/56 102/218/56 103/224/47
f 99/225/55 98/219/50 109/220/50 110/226/55
f 96/227/52 95/221/51 106/222/51 107/228/52
f 93/212/48 92/229/47 103/230/47 104/213/48
f 89/231/59 99/225/55 110/226/55 100/232/59
f 90/216/58 89/233/59 100/234/59 101/217/58
f 91/170/54 80/169/54 79/235/60 90/236/60
f 90/236/60 79/235/60 78/194/54 89/195/54
f 48/237/58 46/238/59 78/239/59 79/240/58
f 66/173/55 88/172/55 78/241/59 46/242/59
f 50/174/56 48/237/58 79/240/58 80/175/57
usemtl Material.001
f 111/1/61 113/4/62 114/3/62 112/2/61
f 113/4/62 115/6/63 116/5/63 114/3/62
f 115/6/63 117/8/64 118/7/64 116/5/63
f 117/8/64 119/10/65 120/9/65 118/7/64
f 119/10/65 121/12/66 122/11/66 120/9/65
f 121/12/66 123/14/67 124/13/67 122/11/66
f 123/14/67 125/16/68 126/15/68 124/13/67
f 125/16/68 127/18/69 128/17/69 126/15/68
f 127/18/69 129/20/70 130/19/70 128/17/69
f 114/21/13 116/31/13 118/30/13 120/29/13 122/28/13 124/27/13 126/26/13 128/25/13 130/24/13 132/23/13 112/22/13
f 129/20/70 131/33/71 132/32/71 130/19/70
f 131/33/71 111/35/61 112/34/61 132/32/71
f 111/36/11 131/46/11 129/45/11 127/44/11 125/43/11 123/42/11 121/41/11 119/40/11 117/39/11 115/38/11 113/37/11
f 133/47/72 135/50/73 136/49/73 134/48/72
f 135/50/73 137/52/74 138/51/74 136/49/73
f 137/52/74 139/54/75 140/53/75 138/51/74
f 139/54/75 141/56/76 142/55/76 140/53/75
f 141/56/76 143/58/77 144/57/77 142/55/76
f 143/58/77 145/60/78 146/59/78 144/57/77
f 145/60/78 147/62/79 148/61/79 146/59/78
f 147/62/79 149/64/80 150/63/80 148/61/79
f 149/64/80 151/66/81 152/65/81 150/63/80
f 136/67/13 138/77/13 140/76/13 142/75/13 144/74/13 146/73/13 148/72/13 150/71/13 152/70/13 154/69/13 134/68/13
f 151/66/81 153/79/82 154/78/82 152/65/81
f 153/79/82 133/81/72 134/80/72 154/78/82
f 133/82/11 153/92/11 151/91/11 149/90/11 147/89/11 145/88/11 143/87/11 141/86/11 139/85/11 137/84/11 135/83/11
f 177/93/83 178/96/83 158/95/83 156/94/83
f 178/96/84 179/98/84 160/97/84 158/95/84
f 179/98/85 180/100/85 162/99/85 160/97/85
f 180/100/86 181/102/86 164/101/86 162/99/86
f 181/102/87 182/104/87 166/103/87 164/101/87
f 182/104/88 183/106/88 168/105/88 166/103/88
f 183/106/89 184/108/89 170/107/89 168/105/89
f 184/108/90 185/110/90 172/109/90 170/107/90
f 185/110/91 186/112/91 174/111/91 172/109/91
f 186/112/92 187/114/92 176/113/92 174/111/92
f 187/114/93 177/93/93 156/94/93 176/113/93
f 155/115/11 175/125/11 173/124/11 171/123/11 169/122/11 167/121/11 165/120/11 163/119/11 161/118/11 159/117/11 157/116/11
f 175/126/94 155/129/95 177/128/95 187/127/94
f 173/130/96 175/126/94 187/127/94 186/131/96
f 171/132/97 173/130/96 186/131/96 185/133/97
f 169/134/98 171/132/97 185/133/97 184/135/98
f 167/136/99 169/139/98 184/138/98 183/137/99
f 165/140/100 167/136/99 183/137/99 182/141/100
f 163/142/101 165/140/100 182/141/100 181/143/101
f 161/144/102 163/142/101 181/143/101 180/145/102
f 159/146/103 161/149/102 180/148/102 179/147/103
f 157/150/104 159/146/103 179/147/103 178/151/104
f 155/152/95 157/150/104 178/151/104 177/153/95
f 162/154/105 164/157/106 192/156/106 191/155/105
f 172/158/107 174/161/108 197/160/108 196/159/107
f 168/162/109 170/165/110 195/164/110 194/163/109
f 164/157/106 166/167/111 193/166/111 192/156/106
f 191/168/112 202/171/112 201/170/112 190/169/112
f 174/161/108 176/173/113 198/172/113 197/160/108
f 166/167/111 168/162/109 194/163/109 193/166/111
f 160/174/114 162/177/105 191/176/105 190/175/115
f 170/178/110 172/158/107 196/159/107 195/179/110
f 207/180/116 218/183/116 217/182/117 206/181/117
f 198/184/118 209/187/118 208/186/118 197/185/118
f 195/188/119 206/191/119 205/190/119 194/189/119
f 192/192/120 203/193/120 202/171/120 191/168/120
f 188/194/121 199/195/121 209/187/121 198/184/121
f 196/196/122 207/197/122 206/191/122 195/188/122
f 193/198/123 204/199/123 203/193/123 192/192/123
f 197/185/124 208/186/124 207/197/124 196/196/124
f 194/189/125 205/190/125 204/199/125 193/198/125
f 211/200/13 212/210/13 213/209/13 214/208/13 215/207/13 216/206/13 217/205/13 218/204/13 219/203/13 220/202/13 210/201/13
f 204/211/126 215/214/126 214/213/127 203/212/127
f 201/215/128 212/218/128 211/217/129 200/216/129
f 208/219/130 219/220/130 218/183/116 207/180/116
f 205/221/131 216/222/131 215/214/126 204/211/126
f 202/223/132 213/224/132 212/218/128 201/215/128
f 209/225/133 220/226/133 219/220/130 208/219/130
f 206/227/117 217/228/117 216/222/131 205/221/131
f 203/212/127 214/213/127 213/230/132 202/229/132
f 199/231/134 210/232/134 220/226/133 209/225/133
f 200/216/129 211/217/129 210/234/134 199/233/134
f 201/170/135 200/236/135 189/235/135 190/169/135
f 200/236/136 199/195/136 188/194/136 189/235/136
f 158/237/137 189/240/137 188/239/138 156/238/138
f 176/173/113 156/242/138 188/241/138 198/172/113
f 160/174/114 190/175/115 189/240/137 158/237/137
